<svg xmlns="http://www.w3.org/2000/svg" width="70" height="70" viewBox="0 0 70 70">
  <path id="Icon_ionic-ios-settings" data-name="Icon ionic-ios-settings" d="M68.721,39.491a9.005,9.005,0,0,1,5.779-8.4,35.69,35.69,0,0,0-4.32-10.406,9.13,9.13,0,0,1-3.664.784A8.986,8.986,0,0,1,58.294,8.819,35.6,35.6,0,0,0,47.9,4.5,9,9,0,0,1,31.1,4.5,35.71,35.71,0,0,0,20.687,8.819a8.986,8.986,0,0,1-8.221,12.648A8.833,8.833,0,0,1,8.8,20.683,36.479,36.479,0,0,0,4.5,31.108a9,9,0,0,1,5.779,8.4,9.016,9.016,0,0,1-5.76,8.4,35.69,35.69,0,0,0,4.32,10.406A8.99,8.99,0,0,1,20.706,70.181,35.918,35.918,0,0,0,31.115,74.5a8.984,8.984,0,0,1,16.771,0,35.709,35.709,0,0,0,10.409-4.319A9,9,0,0,1,70.161,58.317a35.9,35.9,0,0,0,4.32-10.406A9.048,9.048,0,0,1,68.721,39.491ZM39.664,54.052a14.58,14.58,0,1,1,14.583-14.58A14.577,14.577,0,0,1,39.664,54.052Z" transform="translate(-4.5 -4.5)" fill="#fcfcfc"/>
</svg>
