<?xml version="1.0" encoding="UTF-8"?>
<svg xmlns="http://www.w3.org/2000/svg" xmlns:xlink="http://www.w3.org/1999/xlink" width="80pt" height="80pt" viewBox="0 0 80 80" version="1.1">
<g id="surface418090">
<path style=" stroke:none;fill-rule:nonzero;fill:rgb(100%,100%,100%);fill-opacity:1;" d="M 13.5 74.5 L 13.5 3.5 L 50.792969 3.5 L 68.5 21.207031 L 68.5 74.5 Z M 13.5 74.5 "/>
<path style=" stroke:none;fill-rule:nonzero;fill:rgb(40%,40%,40%);fill-opacity:1;" d="M 50.585938 4 L 68 21.414062 L 68 74 L 14 74 L 14 4 L 50.585938 4 M 51 3 L 13 3 L 13 75 L 69 75 L 69 21 Z M 51 3 "/>
<path style=" stroke:none;fill-rule:nonzero;fill:rgb(100%,100%,100%);fill-opacity:1;" d="M 50.5 21.5 L 50.5 3.5 L 50.792969 3.5 L 68.5 21.207031 L 68.5 21.5 Z M 50.5 21.5 "/>
<path style=" stroke:none;fill-rule:nonzero;fill:rgb(40%,40%,40%);fill-opacity:1;" d="M 51 4.414062 L 67.585938 21 L 51 21 L 51 4.414062 M 51 3 L 50 3 L 50 22 L 69 22 L 69 21 Z M 51 3 "/>
<path style=" stroke:none;fill-rule:nonzero;fill:rgb(20%,20%,20%);fill-opacity:1;" d="M 21.808594 38.214844 L 21.808594 55.738281 L 19.488281 55.738281 L 10.664062 42.234375 L 10.664062 55.738281 L 8.339844 55.738281 L 8.339844 38.214844 L 10.664062 38.214844 L 19.511719 51.78125 L 19.511719 38.214844 Z M 35.582031 46.113281 L 35.582031 48 L 28.226562 48 L 28.226562 55.738281 L 25.917969 55.738281 L 25.917969 38.214844 L 36.773438 38.214844 L 36.773438 40.117188 L 28.226562 40.117188 L 28.226562 46.113281 Z M 50.105469 50.175781 L 52.433594 50.175781 C 52.214844 52.03125 51.53125 53.460938 50.382812 54.46875 C 49.226562 55.476562 47.695312 55.980469 45.785156 55.980469 C 43.71875 55.980469 42.058594 55.238281 40.808594 53.753906 C 39.5625 52.269531 38.941406 50.28125 38.941406 47.796875 L 38.941406 46.113281 C 38.941406 44.480469 39.230469 43.046875 39.808594 41.8125 C 40.390625 40.578125 41.21875 39.628906 42.285156 38.96875 C 43.351562 38.304688 44.585938 37.972656 45.992188 37.972656 C 47.855469 37.972656 49.347656 38.492188 50.46875 39.53125 C 51.59375 40.570312 52.246094 42.011719 52.433594 43.847656 L 50.105469 43.847656 C 49.910156 42.449219 49.472656 41.441406 48.804688 40.8125 C 48.132812 40.1875 47.195312 39.875 45.992188 39.875 C 44.515625 39.875 43.359375 40.421875 42.519531 41.511719 C 41.679688 42.601562 41.261719 44.15625 41.261719 46.171875 L 41.261719 47.871094 C 41.261719 49.769531 41.65625 51.28125 42.449219 52.40625 C 43.25 53.527344 44.359375 54.089844 45.785156 54.089844 C 47.070312 54.089844 48.054688 53.796875 48.746094 53.21875 C 49.429688 52.636719 49.882812 51.621094 50.105469 50.175781 Z M 59.871094 47.386719 L 59.871094 49.203125 L 53.996094 49.203125 L 53.996094 47.386719 Z M 72.292969 45.75 L 72.292969 47.636719 L 64.699219 47.636719 L 64.699219 53.851562 L 73.519531 53.851562 L 73.519531 55.738281 L 62.386719 55.738281 L 62.386719 38.214844 L 73.398438 38.214844 L 73.398438 40.117188 L 64.699219 40.117188 L 64.699219 45.75 Z M 72.292969 45.75 "/>
</g>
</svg>
