<svg xmlns="http://www.w3.org/2000/svg" width="50" height="50" viewBox="0 0 50 50">
  <path id="Icon_metro-printer" data-name="Icon metro-printer" d="M15.071,3.856h25V11h-25V3.856ZM49.446,14.57H5.7a3.381,3.381,0,0,0-3.125,3.571V36A3.38,3.38,0,0,0,5.7,39.57h9.375V53.856h25V39.57h9.375A3.381,3.381,0,0,0,52.571,36V18.142a3.381,3.381,0,0,0-3.125-3.571ZM8.821,25.285A3.371,3.371,0,0,1,5.7,21.713a3.371,3.371,0,0,1,3.125-3.571,3.371,3.371,0,0,1,3.125,3.571A3.371,3.371,0,0,1,8.821,25.285Zm28.125,25H18.2V32.427h18.75Z" transform="translate(-2.571 -3.856)" fill="#fff"/>
</svg>
